<?xml version="1.0" encoding="utf-8"?>
<svg xmlns="http://www.w3.org/2000/svg" version="1.1" width="1000" height="800">

<circle cx="300" cy="100" r="5" fill="green" />
<text x="295" y="90" fill="red" >A</text>
<circle cx="200" cy="200" r="5" fill="green" />
<text x="195" y="190" fill="red" >B</text>
<circle cx="400" cy="200" r="5" fill="green" />
<text x="395" y="190" fill="red" >C</text>
<circle cx="300" cy="300" r="5" fill="green" />
<text x="295" y="290" fill="red" >D</text>
<circle cx="200" cy="400" r="5" fill="green" />
<text x="195" y="390" fill="red" >E</text>
<circle cx="300" cy="400" r="5" fill="green" />
<text x="295" y="390" fill="red" >F</text>
<circle cx="400" cy="400" r="5" fill="green" />
<text x="395" y="390" fill="red" >G</text>
<circle cx="100" cy="500" r="5" fill="green" />
<text x="95" y="490" fill="red" >H</text>
<circle cx="500" cy="500" r="5" fill="green" />
<text x="495" y="490" fill="red" >I</text>
<line x1="300" y1="100" x2="200" y2="200" stroke="black" />
<text x="250" y="150" fill="purple" >0</text>
<line x1="300" y1="100" x2="400" y2="200" stroke="black" />
<text x="350" y="150" fill="purple" >0</text>
<line x1="200" y1="200" x2="300" y2="300" stroke="black" />
<text x="250" y="250" fill="purple" >0</text>
<line x1="400" y1="200" x2="300" y2="300" stroke="black" />
<text x="350" y="250" fill="purple" >0</text>
<line x1="300" y1="300" x2="200" y2="400" stroke="black" />
<text x="250" y="350" fill="purple" >0</text>
<line x1="300" y1="300" x2="400" y2="400" stroke="black" />
<text x="350" y="350" fill="purple" >0</text>
<line x1="200" y1="200" x2="100" y2="500" stroke="black" />
<text x="150" y="350" fill="purple" >0</text>
<line x1="400" y1="200" x2="500" y2="500" stroke="black" />
<text x="450" y="350" fill="purple" >0</text>
<line x1="200" y1="400" x2="300" y2="400" stroke="black" />
<text x="250" y="400" fill="purple" >0</text>
<line x1="300" y1="400" x2="400" y2="400" stroke="black" />
<text x="350" y="400" fill="purple" >0</text>
<line x1="400" y1="400" x2="500" y2="500" stroke="black" />
<text x="450" y="450" fill="purple" >0</text>
<line x1="200" y1="400" x2="100" y2="500" stroke="black" />
<text x="150" y="450" fill="purple" >0</text>


</svg>
